<svg xmlns="http://www.w3.org/2000/svg" viewBox="0 0 705.41 192.41"><defs><style>.cls-1{fill:#FFFFFF;}</style></defs><g id="Layer_2" data-name="Layer 2"><g id="Layer_1-2" data-name="Layer 1"><path class="cls-1" d="M457.75,0H589.41q42.06,0,71.33,16.22T700.46,61.3c1.28,5.49,2.42,11.09,3.43,16.76a103.61,103.61,0,0,1,1.52,18.14A116,116,0,0,1,704,114.48a139.43,139.43,0,0,1-3.85,17.18,84.09,84.09,0,0,1-22.67,32.57q-15.25,13.61-37.38,20.89t-50.72,7.29H457.75ZM608.1,135.51a41.56,41.56,0,0,0,16.22-20.07,36.57,36.57,0,0,0,1.65-6.18c.37-2.1.73-4.21,1.1-6.32a40,40,0,0,0,.55-6.74,52.55,52.55,0,0,0-1-10.3A75.37,75.37,0,0,0,624.32,77a41.25,41.25,0,0,0-15.94-20.2q-11-7.27-27.21-7.28H533.89v93.45h47.28Q596.83,142.93,608.1,135.51Z"/><path class="cls-1" d="M442.41,122.87a44.41,44.41,0,0,0-19.51-17.59q-12.66-6-36.56-6.06V92.63Q410,92.38,422.9,86t19.51-16.76a35.66,35.66,0,0,0,4-10,52.27,52.27,0,0,0,1.24-11.69,49,49,0,0,0-1.38-11.68,54.07,54.07,0,0,0-3.58-10.31Q435,12.93,418.36,6.46T375.34,0H232.14v192.4h143.2q26.39,0,43-6.47t24.32-19.37a55.82,55.82,0,0,0,3.58-10,46.85,46.85,0,0,0,1.38-11.69A51.66,51.66,0,0,0,446.4,133,40.1,40.1,0,0,0,442.41,122.87Zm-73.53,14.42a7.91,7.91,0,0,1-1.5,3.44,11.31,11.31,0,0,1-7,6.19,37.16,37.16,0,0,1-12.24,1.78H305V116.54h43.16a30.53,30.53,0,0,1,12.24,2.21q5.08,2.2,6.73,5.76a29,29,0,0,1,1.51,3.72,13.29,13.29,0,0,1,.69,4.26A24.21,24.21,0,0,1,368.88,137.29Zm-.14-73.11a12.83,12.83,0,0,1-1.36,3.43,14.09,14.09,0,0,1-7.15,5.92,31.57,31.57,0,0,1-12.1,2.06H305V43.7h43.16a38.13,38.13,0,0,1,12.38,1.8q5.21,1.78,6.87,6.18a7.92,7.92,0,0,1,1.5,3.43,24.31,24.31,0,0,1,.42,4.81A16.27,16.27,0,0,1,368.74,64.18Z"/><path class="cls-1" d="M0,121.21,133.86,53.88V47.83H0V0H217.42V71.74L83.84,138.53v6.05H218v47.83H0Z"/></g></g></svg>